# xmcd
#
# Track frame offsets:
#	150
#	3992
#	20352
#	33142
#	47263
#	63108
#	75174
#	91471
#	137913
#	152424
#	172383
#	196568
#	210986
#	236178
#	253340
#
# Disc length: 3432 seconds
#
# Revision: 0
# Processed by: cddbd v1.5.2PL0 Copyright (c) Steve Scherf et al.
# Submitted via: EasyCDDAExtractor 9.0.0.1
#
DISCID=b00d660f
DTITLE=David Bowie - Guildhall Preston 09-01-73
DYEAR=1973
DGENRE=Pop
TTITLE0=Ronson´s Ode To Joy Intro
TTITLE1=Let's Spend The Night Together
TTITLE2=Hang On To Yourself 
TTITLE3=Ziggy Stardust
TTITLE4=Changes
TTITLE5=The Supermen
TTITLE6=Five Years
TTITLE7=The Width Of A Circle
TTITLE8=John I'm Only Dancing
TTITLE9=Moonage Daydream 
TTITLE10=The Jean Genie
TTITLE11=Suffragette City
TTITLE12=Waiting For The Man
TTITLE13=Starman
TTITLE14=Rock 'N Roll Suicide
EXTD=
EXTT0=
EXTT1=
EXTT2=
EXTT3=
EXTT4=
EXTT5=
EXTT6=
EXTT7=
EXTT8=
EXTT9=
EXTT10=
EXTT11=
EXTT12=
EXTT13=
EXTT14=
PLAYORDER=
